<?xml version="1.0" encoding="UTF-8"?>
<svg width="21px" height="13px" viewBox="0 0 21 13" version="1.1" xmlns="http://www.w3.org/2000/svg" xmlns:xlink="http://www.w3.org/1999/xlink">
    <title>ic_view_arrow</title>
    <g id="Page-1" stroke="none" stroke-width="1" fill="none" fill-rule="evenodd">
        <g id="Winds-Webapp" transform="translate(-289.000000, -662.000000)" fill="#6372FF">
            <g id="Group-5" transform="translate(252.000000, 574.000000)">
                <g id="Group-19" transform="translate(0.000000, 1.000000)">
                    <path d="M51.5,87 C55.0898509,87 58,89.9101491 58,93.5 C58,97.0898509 55.0898509,100 51.5,100 L43.5,100 C39.9101491,100 37,97.0898509 37,93.5 C37,89.9101491 39.9101491,87 43.5,87 L51.5,87 Z M49.2397194,89.7507308 C49.0182147,89.5497564 48.6802244,89.5497564 48.4587197,89.7507308 C48.2210581,89.9662836 48.2030771,90.3333483 48.4188488,90.5707688 L50.702,92.844 L42.8584,92.8448 C42.52239,92.8448 42.25,93.11719 42.25,93.4532 C42.25,93.78921 42.52239,94.0616 42.8584,94.0616 L50.775,94.061 L48.4188488,96.4073568 C48.1921322,96.6359261 48.1939563,97.004813 48.4227577,97.2312997 C48.6515591,97.4577864 49.0208206,97.4559641 49.2475372,97.2273948 L52.5883503,93.8977801 C52.6936302,93.7879211 52.7517426,93.6410952 52.7499602,93.4890628 L52.7439441,93.3987222 C52.726611,93.2797787 52.6725742,93.1682327 52.5883503,93.0803454 Z" id="ic_view_arrow"></path>
                </g>
            </g>
        </g>
    </g>
</svg>